<?xml version="1.0" standalone="no"?>
<!DOCTYPE svg PUBLIC "-//W3C//DTD SVG 20010904//EN"
 "http://www.w3.org/TR/2001/REC-SVG-20010904/DTD/svg10.dtd">
<svg version="1.0" xmlns="http://www.w3.org/2000/svg"
 width="512.000000pt" height="512.000000pt" viewBox="0 0 512.000000 512.000000"
 preserveAspectRatio="xMidYMid meet">

<g transform="translate(0.000000,512.000000) scale(0.100000,-0.100000)"
fill="#f12d2d" stroke="#f12d2d">
<path d="M2375 5010 c-763 -64 -1453 -475 -1878 -1120 -187 -284 -328 -657
-377 -1001 -19 -132 -27 -344 -19 -496 31 -556 244 -1070 622 -1502 343 -390
841 -678 1352 -780 191 -38 277 -46 505 -46 241 1 360 13 560 61 619 146 1162
528 1512 1064 81 123 201 363 253 505 45 121 98 333 120 475 23 145 31 458 16
606 -60 597 -327 1144 -761 1557 -372 354 -831 578 -1340 656 -155 24 -419 33
-565 21z m499 -475 c887 -137 1585 -847 1701 -1731 69 -529 -76 -1070 -404
-1499 -64 -84 -242 -266 -331 -338 -535 -432 -1256 -561 -1909 -341 -289 98
-557 262 -771 473 -532 527 -731 1284 -526 1999 110 381 344 737 656 997 299
249 691 413 1092 455 112 12 370 4 492 -15z"/>
<path d="M1616 3595 c-49 -17 -103 -68 -127 -120 -24 -51 -24 -138 -1 -187 10
-23 162 -186 385 -412 202 -206 367 -377 367 -380 0 -3 -165 -169 -366 -368
-214 -212 -375 -379 -387 -403 -15 -29 -21 -59 -22 -106 0 -56 4 -73 30 -115
19 -30 49 -60 79 -79 42 -26 59 -30 115 -30 45 1 77 7 101 19 19 11 203 185
409 388 l375 370 375 -381 c369 -373 377 -381 433 -396 195 -55 362 147 268
323 -11 21 -184 204 -385 407 l-365 370 373 370 c206 204 382 385 391 402 24
47 31 116 16 167 -16 57 -72 123 -124 147 -53 24 -139 24 -192 0 -27 -12 -163
-139 -416 -390 l-376 -371 -362 370 c-391 398 -418 420 -509 420 -26 -1 -63
-7 -85 -15z"/>
</g>
</svg>
